<svg width="88" height="64" viewBox="0 0 88 64" fill="none" xmlns="http://www.w3.org/2000/svg">
<path d="M52 36C48.6667 36 45.8333 34.8333 43.5 32.5C41.1667 30.1667 40 27.3333 40 24C40 20.6667 41.1667 17.8333 43.5 15.5C45.8333 13.1667 48.6667 12 52 12C55.3333 12 58.1667 13.1667 60.5 15.5C62.8333 17.8333 64 20.6667 64 24C64 27.3333 62.8333 30.1667 60.5 32.5C58.1667 34.8333 55.3333 36 52 36ZM24 48C21.8 48 19.9167 47.2167 18.35 45.65C16.7833 44.0833 16 42.2 16 40V8C16 5.8 16.7833 3.91667 18.35 2.35C19.9167 0.783333 21.8 0 24 0H80C82.2 0 84.0833 0.783333 85.65 2.35C87.2167 3.91667 88 5.8 88 8V40C88 42.2 87.2167 44.0833 85.65 45.65C84.0833 47.2167 82.2 48 80 48H24ZM32 40H72C72 37.8 72.7833 35.9167 74.35 34.35C75.9167 32.7833 77.8 32 80 32V16C77.8 16 75.9167 15.2167 74.35 13.65C72.7833 12.0833 72 10.2 72 8H32C32 10.2 31.2167 12.0833 29.65 13.65C28.0833 15.2167 26.2 16 24 16V32C26.2 32 28.0833 32.7833 29.65 34.35C31.2167 35.9167 32 37.8 32 40ZM76 64H8C5.8 64 3.91667 63.2167 2.35 61.65C0.783333 60.0833 0 58.2 0 56V12H8V56H76V64Z" fill="white" fill-opacity="0.23"/>
</svg>
