<svg width="56" height="72" viewBox="0 0 56 72" fill="none" xmlns="http://www.w3.org/2000/svg">
<path d="M7 71.25C5.075 71.25 3.42708 70.5891 2.05625 69.2672C0.685417 67.9453 0 66.3563 0 64.5V30.75C0 28.8938 0.685417 27.3047 2.05625 25.9828C3.42708 24.6609 5.075 24 7 24H10.5V17.25C10.5 12.5813 12.2063 8.60156 15.6187 5.31094C19.0312 2.02031 23.1583 0.375 28 0.375C32.8417 0.375 36.9688 2.02031 40.3812 5.31094C43.7938 8.60156 45.5 12.5813 45.5 17.25V24H49C50.925 24 52.5729 24.6609 53.9437 25.9828C55.3146 27.3047 56 28.8938 56 30.75V64.5C56 66.3563 55.3146 67.9453 53.9437 69.2672C52.5729 70.5891 50.925 71.25 49 71.25H7ZM7 64.5H49V30.75H7V64.5ZM28 54.375C29.925 54.375 31.5729 53.7141 32.9437 52.3922C34.3146 51.0703 35 49.4813 35 47.625C35 45.7687 34.3146 44.1797 32.9437 42.8578C31.5729 41.5359 29.925 40.875 28 40.875C26.075 40.875 24.4271 41.5359 23.0562 42.8578C21.6854 44.1797 21 45.7687 21 47.625C21 49.4813 21.6854 51.0703 23.0562 52.3922C24.4271 53.7141 26.075 54.375 28 54.375ZM17.5 24H38.5V17.25C38.5 14.4375 37.4792 12.0469 35.4375 10.0781C33.3958 8.10938 30.9167 7.125 28 7.125C25.0833 7.125 22.6042 8.10938 20.5625 10.0781C18.5208 12.0469 17.5 14.4375 17.5 17.25V24Z" fill="white" fill-opacity="0.23"/>
</svg>
