<svg width="59" height="59" viewBox="0 0 59 59" fill="none" xmlns="http://www.w3.org/2000/svg">
<path d="M37.5208 28.6979C36.3979 28.6979 35.4488 28.3102 34.6734 27.5349C33.8981 26.7595 33.5104 25.8104 33.5104 24.6875C33.5104 23.5646 33.8981 22.6155 34.6734 21.8401C35.4488 21.0648 36.3979 20.6771 37.5208 20.6771C38.6437 20.6771 39.5929 21.0648 40.3682 21.8401C41.1436 22.6155 41.5312 23.5646 41.5312 24.6875C41.5312 25.8104 41.1436 26.7595 40.3682 27.5349C39.5929 28.3102 38.6437 28.6979 37.5208 28.6979ZM21.4792 28.6979C20.3562 28.6979 19.4071 28.3102 18.6318 27.5349C17.8564 26.7595 17.4688 25.8104 17.4688 24.6875C17.4688 23.5646 17.8564 22.6155 18.6318 21.8401C19.4071 21.0648 20.3562 20.6771 21.4792 20.6771C22.6021 20.6771 23.5512 21.0648 24.3266 21.8401C25.1019 22.6155 25.4896 23.5646 25.4896 24.6875C25.4896 25.8104 25.1019 26.7595 24.3266 27.5349C23.5512 28.3102 22.6021 28.6979 21.4792 28.6979ZM29.5 45.5417C26.2917 45.5417 23.3908 44.6594 20.7974 42.8948C18.204 41.1302 16.2924 38.8042 15.0625 35.9167H43.9375C42.7076 38.8042 40.796 41.1302 38.2026 42.8948C35.6092 44.6594 32.7083 45.5417 29.5 45.5417ZM29.5 58.375C25.4896 58.375 21.7332 57.613 18.2307 56.0891C14.7283 54.5651 11.6804 52.5064 9.08698 49.913C6.49358 47.3196 4.4349 44.2717 2.91094 40.7693C1.38698 37.2668 0.625 33.5104 0.625 29.5C0.625 25.4896 1.38698 21.7332 2.91094 18.2307C4.4349 14.7283 6.49358 11.6804 9.08698 9.08698C11.6804 6.49358 14.7283 4.4349 18.2307 2.91094C21.7332 1.38698 25.4896 0.625 29.5 0.625C33.5104 0.625 37.2668 1.38698 40.7693 2.91094C44.2717 4.4349 47.3196 6.49358 49.913 9.08698C52.5064 11.6804 54.5651 14.7283 56.0891 18.2307C57.613 21.7332 58.375 25.4896 58.375 29.5C58.375 33.5104 57.613 37.2668 56.0891 40.7693C54.5651 44.2717 52.5064 47.3196 49.913 49.913C47.3196 52.5064 44.2717 54.5651 40.7693 56.0891C37.2668 57.613 33.5104 58.375 29.5 58.375ZM29.5 51.9583C35.7028 51.9583 40.9965 49.766 45.3812 45.3812C49.766 40.9965 51.9583 35.7028 51.9583 29.5C51.9583 23.2972 49.766 18.0035 45.3812 13.6187C40.9965 9.23403 35.7028 7.04167 29.5 7.04167H28.5375C28.2167 7.04167 27.8958 7.09514 27.575 7.20208C27.2542 7.52292 27.0403 7.87049 26.9333 8.24479C26.8264 8.6191 26.7729 9.02014 26.7729 9.44792C26.7729 10.5708 27.1606 11.52 27.9359 12.2953C28.7113 13.0707 29.6604 13.4583 30.7833 13.4583C31.2646 13.4583 31.7057 13.3781 32.1068 13.2177C32.5078 13.0573 32.9222 12.9771 33.35 12.9771C33.9917 12.9771 34.5264 13.2177 34.9542 13.699C35.3819 14.1802 35.5958 14.7417 35.5958 15.3833C35.5958 16.6132 35.021 17.4019 33.8714 17.7495C32.7217 18.097 31.6924 18.2708 30.7833 18.2708C28.3771 18.2708 26.305 17.4019 24.5672 15.6641C22.8293 13.9262 21.9604 11.8542 21.9604 9.44792V8.96667C21.9604 8.80625 21.9872 8.59236 22.0406 8.325C17.6024 9.92917 13.9931 12.6295 11.2125 16.426C8.43194 20.2226 7.04167 24.5806 7.04167 29.5C7.04167 35.7028 9.23403 40.9965 13.6187 45.3812C18.0035 49.766 23.2972 51.9583 29.5 51.9583Z" fill="white" fill-opacity="0.23"/>
</svg>
