<svg width="60" height="61" viewBox="0 0 60 61" fill="none" xmlns="http://www.w3.org/2000/svg">
<path d="M0.166626 60.125V53.5417H52.8333V60.125H0.166626ZM13.3333 46.9583C9.71246 46.9583 6.61281 45.6691 4.03433 43.0906C1.45586 40.5122 0.166626 37.4125 0.166626 33.7917V0.875H52.8333C54.6437 0.875 56.1935 1.51962 57.4828 2.80885C58.772 4.09809 59.4166 5.64792 59.4166 7.45833V17.3333C59.4166 19.1438 58.772 20.6936 57.4828 21.9828C56.1935 23.272 54.6437 23.9167 52.8333 23.9167H46.25V33.7917C46.25 37.4125 44.9607 40.5122 42.3823 43.0906C39.8038 45.6691 36.7041 46.9583 33.0833 46.9583H13.3333ZM13.3333 40.375H33.0833C34.8937 40.375 36.4435 39.7304 37.7328 38.4411C39.022 37.1519 39.6666 35.6021 39.6666 33.7917V7.45833H6.74996V33.7917C6.74996 35.6021 7.39458 37.1519 8.68381 38.4411C9.97305 39.7304 11.5229 40.375 13.3333 40.375ZM46.25 17.3333H52.8333V7.45833H46.25V17.3333ZM13.3333 40.375H6.74996H39.6666H13.3333Z" fill="white" fill-opacity="0.23"/>
</svg>
