<svg width="34" height="29" viewBox="0 0 34 29" fill="none" xmlns="http://www.w3.org/2000/svg">
<path d="M21.406 1.05703C20.0989 1.68383 18.8477 2.40891 17.7964 3.40963C17.1779 3.99928 16.7319 3.92857 16.1563 3.38446C14.9645 2.2567 13.5873 1.3974 12.0733 0.783781C8.92866 -0.491393 5.9137 -0.26608 3.21272 1.8696C0.577147 3.95374 -0.306529 6.79292 0.090709 10.0911C0.383286 12.5228 1.10759 14.8323 2.05192 17.0758C2.40278 17.9075 2.77028 18.7393 3.21509 19.5219C3.50886 20.0384 4.03455 20.2541 4.61018 19.9354C5.15966 19.6309 5.32141 19.142 5.08592 18.5463C4.98007 18.2779 4.85281 18.0166 4.7315 17.7529C3.6052 15.3093 2.71438 12.7877 2.30882 10.1151C1.91753 7.53957 2.46343 5.25648 4.59235 3.5954C6.66893 1.97626 8.95959 1.91394 11.3276 2.87631C12.505 3.3545 13.5254 4.08437 14.5304 4.86218C15.2654 5.43145 15.3487 5.85811 14.7362 6.60835C13.2103 8.48037 12.0863 10.5849 11.7058 13.0118C11.362 15.2086 12.0661 17.0351 13.862 18.3474C15.6496 19.6537 17.5918 19.8431 19.5518 18.7776C21.4988 17.7194 22.4514 16.0391 22.361 13.78C22.3158 12.6367 22.0114 11.5676 21.5511 10.5333C20.9148 9.10357 20.1251 7.76368 19.1486 6.54843C18.6467 5.92403 18.7395 5.48778 19.3377 5.00959C20.3582 4.19583 21.4119 3.44678 22.6167 2.93743C27.7178 0.781384 32.4716 4.40436 31.8079 9.93891C31.2144 14.8874 29.3079 19.2882 26.2906 23.2084C25.4533 24.2966 24.4971 25.2925 23.3601 26.0787C22.0661 26.974 21.3667 26.9165 20.1631 25.9301C19.6636 25.5202 19.1605 25.0816 18.5896 24.7988C16.8508 23.9394 15.4105 24.6034 14.0583 25.7707C12.6037 27.0255 11.9746 27.0111 10.457 25.8402C9.3592 24.9929 8.51834 23.9059 7.67986 22.8177C7.20532 22.2017 6.61303 21.8529 5.92797 22.3802C5.26194 22.8932 5.54262 23.544 5.92559 24.1216C6.93296 25.6425 8.133 26.986 9.6387 28.0214C11.6499 29.4057 13.2555 29.3206 15.1513 27.771C16.9519 26.2992 17.1018 26.3004 18.9024 27.7865C20.6852 29.2595 22.2932 29.3781 24.2568 28.1557C24.7147 27.8716 25.1702 27.5624 25.5603 27.1933C30.7304 22.3059 33.3766 16.2105 33.9987 10.2397C34.1057 2.11049 27.7333 -1.98469 21.4036 1.05344L21.406 1.05703ZM20.1703 13.8759C20.1417 15.942 18.7776 17.3275 17.072 17.367C15.2607 17.409 13.8537 16.1134 13.8347 14.3121C13.8085 11.878 15.0835 9.97965 16.4476 8.13281C16.7141 7.77207 17.053 7.72892 17.3444 8.10405C18.7526 9.92452 19.8741 11.8828 20.1715 13.8747L20.1703 13.8759Z" fill="#252A61"/>
</svg>
