<svg width="110" height="29" viewBox="0 0 110 29" fill="none" xmlns="http://www.w3.org/2000/svg">
<path d="M21.406 1.05703C20.0989 1.68383 18.8477 2.40891 17.7964 3.40963C17.1779 3.99928 16.7319 3.92857 16.1563 3.38446C14.9645 2.2567 13.5873 1.3974 12.0733 0.783781C8.92866 -0.491393 5.9137 -0.26608 3.21272 1.8696C0.577147 3.95374 -0.306529 6.79292 0.090709 10.0911C0.383286 12.5228 1.10759 14.8323 2.05192 17.0758C2.40278 17.9075 2.77028 18.7393 3.21509 19.5219C3.50886 20.0384 4.03455 20.2541 4.61018 19.9354C5.15966 19.6309 5.32141 19.142 5.08592 18.5463C4.98007 18.2779 4.85281 18.0166 4.7315 17.7529C3.6052 15.3093 2.71438 12.7877 2.30882 10.1151C1.91753 7.53957 2.46343 5.25648 4.59235 3.5954C6.66893 1.97626 8.95959 1.91394 11.3276 2.87631C12.505 3.3545 13.5254 4.08437 14.5304 4.86218C15.2654 5.43145 15.3487 5.85811 14.7362 6.60835C13.2103 8.48037 12.0863 10.5849 11.7058 13.0118C11.362 15.2086 12.0661 17.0351 13.862 18.3474C15.6496 19.6537 17.5918 19.8431 19.5518 18.7776C21.4988 17.7194 22.4514 16.0391 22.361 13.78C22.3158 12.6367 22.0114 11.5676 21.5511 10.5333C20.9148 9.10357 20.1251 7.76368 19.1486 6.54843C18.6467 5.92403 18.7395 5.48778 19.3377 5.00959C20.3582 4.19583 21.4119 3.44678 22.6167 2.93743C27.7178 0.781384 32.4716 4.40436 31.8079 9.93891C31.2144 14.8874 29.3079 19.2882 26.2906 23.2084C25.4533 24.2966 24.4971 25.2925 23.3601 26.0787C22.0661 26.974 21.3667 26.9165 20.1631 25.9301C19.6636 25.5202 19.1605 25.0816 18.5896 24.7988C16.8508 23.9394 15.4105 24.6034 14.0583 25.7707C12.6037 27.0255 11.9746 27.0111 10.457 25.8402C9.3592 24.9929 8.51834 23.9059 7.67986 22.8177C7.20532 22.2017 6.61303 21.8529 5.92797 22.3802C5.26194 22.8932 5.54262 23.544 5.92559 24.1216C6.93296 25.6425 8.133 26.986 9.6387 28.0214C11.6499 29.4057 13.2555 29.3206 15.1513 27.771C16.9519 26.2992 17.1018 26.3004 18.9024 27.7865C20.6852 29.2595 22.2932 29.3781 24.2568 28.1557C24.7147 27.8716 25.1702 27.5624 25.5603 27.1933C30.7304 22.3059 33.3766 16.2105 33.9987 10.2397C34.1057 2.11049 27.7333 -1.98469 21.4036 1.05344L21.406 1.05703ZM20.1703 13.8759C20.1417 15.942 18.7776 17.3275 17.072 17.367C15.2607 17.409 13.8537 16.1134 13.8347 14.3121C13.8085 11.878 15.0835 9.97965 16.4476 8.13281C16.7141 7.77207 17.053 7.72892 17.3444 8.10405C18.7526 9.92452 19.8741 11.8828 20.1715 13.8747L20.1703 13.8759Z" fill="#252A61"/>
<path d="M60.52 21H58.24V10.08H58.2L53.64 21H51.7L47.16 10.12H47.1V21H44.86V6.42H47.96L52.68 17.7H52.7L57.34 6.42H60.52V21ZM73.015 16.68H65.455C65.4683 17.4 65.775 18.02 66.375 18.54C66.975 19.0467 67.6417 19.2933 68.375 19.28C69.7617 19.28 70.6417 18.72 71.015 17.6L72.875 18.18C72.7017 18.78 72.3817 19.3133 71.915 19.78C71.4617 20.2467 70.9283 20.6 70.315 20.84C69.675 21.0667 69.035 21.18 68.395 21.18C66.955 21.2067 65.7217 20.7133 64.695 19.7C63.6683 18.6867 63.1683 17.46 63.195 16.02C63.195 15.0867 63.4083 14.2267 63.835 13.44C64.275 12.6267 64.875 12 65.635 11.56C66.4083 11.0933 67.2617 10.86 68.195 10.86C69.715 10.86 70.9017 11.3333 71.755 12.28C72.6217 13.2267 73.055 14.4667 73.055 16C73.055 16.1867 73.0417 16.4133 73.015 16.68ZM68.215 12.76C67.5083 12.76 66.9217 12.9667 66.455 13.38C65.9617 13.78 65.6683 14.32 65.575 15H70.795C70.755 14.3333 70.495 13.7867 70.015 13.36C69.5083 12.96 68.9083 12.76 68.215 12.76ZM83.6278 21H76.1878V24.08H74.0078V19.04H74.0478C74.7278 19.04 75.2545 18.6933 75.6278 18C76.0145 17.3067 76.2545 16.5533 76.3478 15.74L76.9078 11.06H84.5478V19H85.8078V24.08H83.6278V21ZM78.8878 13.06L78.5078 15.94C78.4545 16.54 78.2945 17.12 78.0278 17.68C77.8011 18.2267 77.4745 18.6667 77.0478 19H82.3078V13.06H78.8878ZM96.7845 16.68H89.2245C89.2379 17.4 89.5445 18.02 90.1445 18.54C90.7445 19.0467 91.4112 19.2933 92.1445 19.28C93.5312 19.28 94.4112 18.72 94.7845 17.6L96.6445 18.18C96.4712 18.78 96.1512 19.3133 95.6845 19.78C95.2312 20.2467 94.6979 20.6 94.0845 20.84C93.4445 21.0667 92.8045 21.18 92.1645 21.18C90.7245 21.2067 89.4912 20.7133 88.4645 19.7C87.4379 18.6867 86.9379 17.46 86.9645 16.02C86.9645 15.0867 87.1779 14.2267 87.6045 13.44C88.0445 12.6267 88.6445 12 89.4045 11.56C90.1779 11.0933 91.0312 10.86 91.9645 10.86C93.4845 10.86 94.6712 11.3333 95.5245 12.28C96.3912 13.2267 96.8245 14.4667 96.8245 16C96.8245 16.1867 96.8112 16.4133 96.7845 16.68ZM91.9845 12.76C91.2779 12.76 90.6912 12.9667 90.2245 13.38C89.7312 13.78 89.4379 14.32 89.3445 15H94.5645C94.5245 14.3333 94.2645 13.7867 93.7845 13.36C93.2779 12.96 92.6779 12.76 91.9845 12.76ZM103.289 17.72L100.869 21H98.2294L101.009 17.34C99.4227 16.82 98.6294 15.8067 98.6294 14.3C98.6294 13.38 98.9627 12.6067 99.6294 11.98C100.323 11.3667 101.303 11.06 102.569 11.06H107.549V21H105.329V17.72H103.289ZM105.329 12.92H102.809C102.369 12.92 101.956 13.0133 101.569 13.2C101.103 13.4133 100.869 13.82 100.869 14.42C100.869 14.8333 101.029 15.1933 101.349 15.5C101.656 15.7933 102.149 15.94 102.829 15.94H105.329V12.92Z" fill="#252A61"/>
</svg>
