<svg width="27" height="27" viewBox="0 0 27 27" fill="none" xmlns="http://www.w3.org/2000/svg">
<path d="M13.5 13.5C12.2625 13.5 11.2031 13.0594 10.3219 12.1781C9.44062 11.2969 9 10.2375 9 9C9 7.7625 9.44062 6.70312 10.3219 5.82187C11.2031 4.94062 12.2625 4.5 13.5 4.5C14.7375 4.5 15.7969 4.94062 16.6781 5.82187C17.5594 6.70312 18 7.7625 18 9C18 10.2375 17.5594 11.2969 16.6781 12.1781C15.7969 13.0594 14.7375 13.5 13.5 13.5ZM4.5 22.5V19.35C4.5 18.7125 4.66406 18.1266 4.99219 17.5922C5.32031 17.0578 5.75625 16.65 6.3 16.3687C7.4625 15.7875 8.64375 15.3516 9.84375 15.0609C11.0437 14.7703 12.2625 14.625 13.5 14.625C14.7375 14.625 15.9562 14.7703 17.1562 15.0609C18.3562 15.3516 19.5375 15.7875 20.7 16.3687C21.2437 16.65 21.6797 17.0578 22.0078 17.5922C22.3359 18.1266 22.5 18.7125 22.5 19.35V22.5H4.5ZM6.75 20.25H20.25V19.35C20.25 19.1437 20.1984 18.9562 20.0953 18.7875C19.9922 18.6187 19.8562 18.4875 19.6875 18.3937C18.675 17.8875 17.6531 17.5078 16.6219 17.2547C15.5906 17.0016 14.55 16.875 13.5 16.875C12.45 16.875 11.4094 17.0016 10.3781 17.2547C9.34687 17.5078 8.325 17.8875 7.3125 18.3937C7.14375 18.4875 7.00781 18.6187 6.90469 18.7875C6.80156 18.9562 6.75 19.1437 6.75 19.35V20.25ZM13.5 11.25C14.1187 11.25 14.6484 11.0297 15.0891 10.5891C15.5297 10.1484 15.75 9.61875 15.75 9C15.75 8.38125 15.5297 7.85156 15.0891 7.41094C14.6484 6.97031 14.1187 6.75 13.5 6.75C12.8812 6.75 12.3516 6.97031 11.9109 7.41094C11.4703 7.85156 11.25 8.38125 11.25 9C11.25 9.61875 11.4703 10.1484 11.9109 10.5891C12.3516 11.0297 12.8812 11.25 13.5 11.25Z" fill="#252A61"/>
</svg>
