<svg width="21" height="20" viewBox="0 0 21 20" fill="none" xmlns="http://www.w3.org/2000/svg">
<path d="M10.1641 0.535934C10.0636 0.837349 9.89441 1.35478 9.78384 1.68633C9.67494 2.01789 9.39349 2.87357 9.15895 3.58692C8.92273 4.30027 8.54411 5.45234 8.31626 6.14392L7.90079 7.40484H3.95039C1.77751 7.40484 0 7.40987 0 7.41656C0 7.42494 0.284804 7.63425 0.633269 7.88376C0.980059 8.13326 2.40408 9.15305 3.79459 10.1494C5.18678 11.1474 6.33772 11.9763 6.35447 11.9914C6.38798 12.0232 6.44661 11.834 5.65084 14.2453C5.33755 15.1998 5.07453 15.9985 4.59874 17.4436C4.36252 18.162 4.1196 18.8988 4.05929 19.0813C3.99898 19.2638 3.95374 19.4179 3.95877 19.4229C3.9705 19.433 3.5634 19.7243 7.16197 17.1422C8.85739 15.9265 10.2697 14.9134 10.2982 14.8933L10.3534 14.8548L11.63 15.7725C15.7295 18.7163 16.7448 19.4413 16.7498 19.4363C16.7532 19.433 16.6727 19.1801 16.5722 18.872C16.47 18.5656 16.2103 17.7752 15.9926 17.1171C15.1365 14.5115 14.7997 13.4867 14.6339 12.981C14.391 12.2442 14.3239 12.0383 14.3239 12.0182C14.3239 12.0081 15.7563 10.9749 17.507 9.71904C19.2577 8.46314 20.6901 7.42829 20.6901 7.41991C20.6901 7.41154 19.1673 7.40317 16.7414 7.40149L12.7944 7.39647L12.5196 6.55921C12.3689 6.09871 12.0639 5.17605 11.8445 4.50791C11.625 3.83978 11.2028 2.55541 10.9063 1.65284C10.6098 0.750273 10.3618 0.00678253 10.3551 8.58307e-05C10.3484 -0.00828743 10.263 0.232843 10.1641 0.535934Z" fill="#252A61"/>
</svg>
