<svg width="28" height="27" viewBox="0 0 28 27" fill="none" xmlns="http://www.w3.org/2000/svg">
<path d="M24.5976 0H3.324C1.48915 0 0 1.39034 0 3.10345V22.9655C0 24.6786 1.48915 26.069 3.324 26.069H24.5976C26.4324 26.069 27.9216 24.6786 27.9216 22.9655V3.10345C27.9216 1.39034 26.4324 0 24.5976 0ZM22.4171 18L19.9373 17.9938C19.9373 17.9938 19.8842 18 19.7977 18C19.5983 18 19.1861 17.9503 18.7008 17.64C17.8299 17.0752 16.9989 15.6724 16.3408 15.6724C16.2942 15.6724 16.2544 15.6786 16.2145 15.691C15.6427 15.8586 15.4699 16.3924 15.4699 17.0441C15.4699 17.2738 15.297 17.3793 14.8317 17.3793H13.5486C12.1127 17.3793 10.7232 17.3483 9.16094 15.7531C6.86073 13.4007 4.70678 9.21724 4.70678 9.21724C4.70678 9.21724 4.58712 8.97517 4.71343 8.83241C4.8331 8.70207 5.11231 8.68966 5.21868 8.68966C5.24527 8.68966 5.25857 8.68966 5.25857 8.68966H7.91777C7.91777 8.68966 8.16374 8.7331 8.34324 8.85724C8.49614 8.96276 8.57592 9.15517 8.57592 9.15517C8.57592 9.15517 9.02798 9.97448 9.59306 10.8993C10.5437 12.4262 11.0556 12.9352 11.4213 12.9352C11.4811 12.9352 11.5409 12.9228 11.6008 12.8917C12.1459 12.6124 11.9863 10.3531 11.9863 10.3531C11.9863 10.3531 11.993 9.53379 11.7071 9.17379C11.4877 8.88828 11.0689 8.80759 10.8828 8.78276C10.7365 8.76414 10.9758 8.44138 11.2949 8.29241C11.7071 8.10621 12.3919 8.06896 13.2162 8.06896H13.6151C14.3929 8.08138 14.4129 8.15586 14.7187 8.22414C15.6361 8.42897 15.3236 9.22965 15.3236 11.1476C15.3236 11.7621 15.204 12.6248 15.676 12.9166C15.7092 12.9352 15.7558 12.9476 15.8156 12.9476C16.1214 12.9476 16.7795 12.5814 17.8299 10.9241C18.415 9.98069 18.867 9.04345 18.867 9.04345C18.867 9.04345 18.9667 8.87586 19.1196 8.78897C19.2659 8.70828 19.2659 8.70828 19.4587 8.70828H19.4786C19.6914 8.70828 21.8054 8.68966 22.2708 8.68966H22.324C22.7694 8.68966 23.1749 8.69586 23.2481 8.95034C23.3544 9.33517 22.9223 10.0241 21.7855 11.4517C19.9108 13.7917 19.698 13.6179 21.2537 14.971C22.7428 16.2621 23.0486 16.889 23.1018 16.9697C23.7201 17.9255 22.4171 18 22.4171 18Z" fill="#252A61"/>
</svg>
