<svg width="29" height="27" viewBox="0 0 29 27" fill="none" xmlns="http://www.w3.org/2000/svg">
<path d="M14.4262 0C6.45931 0 0 6.04463 0 13.5C0 16.0326 0.760188 18.3938 2.05685 20.4192L0.12914 27L7.3117 25.2356C9.41229 26.3532 11.8373 27 14.4262 27C22.393 27 28.8523 20.9554 28.8523 13.5C28.8523 6.04463 22.393 0 14.4262 0ZM9.4883 7.20264C9.72272 7.20264 9.96359 7.2013 10.1716 7.21143C10.4288 7.21705 10.7088 7.23468 10.9769 7.78931C11.2955 8.44856 11.9892 10.1024 12.0781 10.27C12.1671 10.4376 12.2302 10.6351 12.1063 10.8545C11.9885 11.0795 11.9272 11.2157 11.7541 11.4148C11.575 11.6083 11.3787 11.8486 11.2164 11.9949C11.0373 12.1625 10.8523 12.3463 11.0591 12.6804C11.2659 13.0145 11.984 14.1099 13.0455 14.9941C14.41 16.1349 15.5612 16.4855 15.9195 16.6531C16.2777 16.8207 16.4852 16.7946 16.692 16.5696C16.9048 16.3502 17.5856 15.5975 17.8261 15.2622C18.0605 14.927 18.2998 14.985 18.6244 15.0952C18.9538 15.2055 20.7104 16.0152 21.0687 16.1829C21.4269 16.3505 21.6618 16.4335 21.7519 16.5696C21.8445 16.7102 21.8446 17.3797 21.5477 18.1604C21.2507 18.94 19.7926 19.694 19.1386 19.7468C18.4786 19.8042 17.8627 20.0244 14.8488 18.9141C11.2134 17.5742 8.92076 14.0897 8.74163 13.8647C8.56251 13.6454 7.28587 12.0531 7.28587 10.4106C7.28587 8.76252 8.20927 7.95537 8.53266 7.62012C8.86206 7.28487 9.24786 7.20264 9.4883 7.20264Z" fill="#252A61"/>
</svg>
