<svg width="43" height="43" viewBox="0 0 43 43" fill="none" xmlns="http://www.w3.org/2000/svg">
<circle cx="21.5" cy="21.5" r="21.5" fill="#999999"/>
<path d="M21.5 21.4999C19.8576 21.4999 18.4517 20.9151 17.2821 19.7455C16.1125 18.576 15.5278 17.17 15.5278 15.5276C15.5278 13.8853 16.1125 12.4793 17.2821 11.3098C18.4517 10.1402 19.8576 9.55542 21.5 9.55542C23.1423 9.55542 24.5483 10.1402 25.7179 11.3098C26.8874 12.4793 27.4722 13.8853 27.4722 15.5276C27.4722 17.17 26.8874 18.576 25.7179 19.7455C24.5483 20.9151 23.1423 21.4999 21.5 21.4999ZM9.55554 33.4443V29.2638C9.55554 28.4177 9.77328 27.6401 10.2088 26.9309C10.6442 26.2217 11.2228 25.6804 11.9444 25.3072C13.4873 24.5357 15.055 23.9572 16.6476 23.5715C18.2401 23.1858 19.8576 22.9929 21.5 22.9929C23.1423 22.9929 24.7598 23.1858 26.3524 23.5715C27.945 23.9572 29.5127 24.5357 31.0555 25.3072C31.7772 25.6804 32.3557 26.2217 32.7912 26.9309C33.2267 27.6401 33.4444 28.4177 33.4444 29.2638V33.4443H9.55554ZM12.5417 30.4582H30.4583V29.2638C30.4583 28.99 30.3899 28.7412 30.253 28.5172C30.1162 28.2933 29.9357 28.1191 29.7118 27.9947C28.368 27.3228 27.0119 26.8189 25.6432 26.4829C24.2746 26.147 22.8935 25.979 21.5 25.979C20.1065 25.979 18.7254 26.147 17.3568 26.4829C15.9881 26.8189 14.6319 27.3228 13.2882 27.9947C13.0642 28.1191 12.8838 28.2933 12.7469 28.5172C12.6101 28.7412 12.5417 28.99 12.5417 29.2638V30.4582ZM21.5 18.5138C22.3212 18.5138 23.0241 18.2214 23.6089 17.6366C24.1937 17.0518 24.4861 16.3488 24.4861 15.5276C24.4861 14.7065 24.1937 14.0035 23.6089 13.4187C23.0241 12.8339 22.3212 12.5415 21.5 12.5415C20.6788 12.5415 19.9758 12.8339 19.391 13.4187C18.8063 14.0035 18.5139 14.7065 18.5139 15.5276C18.5139 16.3488 18.8063 17.0518 19.391 17.6366C19.9758 18.2214 20.6788 18.5138 21.5 18.5138Z" fill="#D6D4D4"/>
</svg>
